<svg width="64" height="64" viewBox="0 0 64 64" fill="none" xmlns="http://www.w3.org/2000/svg">
<path d="M9 11.9998L9 51.9998H55V11.9998H9ZM8.01335 8.00781H56.0134C56.7206 8.00781 57.4999 8.49972 58 8.99982C58.5001 9.49991 59 10.2926 59 10.9998V52.9998C59 53.7071 58.5001 54.4997 58 54.9998C57.4999 55.4999 56.7206 56.0078 56.0134 56.0078H8.01335C7.3061 56.0078 6.5001 55.4999 6 54.9998C5.4999 54.4997 5 53.7071 5 52.9998V10.9998C5 10.2926 5.4999 9.49991 6 8.99982C6.5001 8.49972 7.3061 8.00781 8.01335 8.00781Z" fill="#222222"/>
<path d="M37.0781 24.8383L38.7955 26.5557C39.186 26.9462 39.186 27.5794 38.7955 27.9699L33.4734 33.292C33.0829 33.6825 32.4497 33.6825 32.0592 33.292L27.8173 29.0501C27.4268 28.6596 26.7936 28.6596 26.4031 29.0501L16.707 38.7463C16.3164 39.1368 16.3164 39.77 16.707 40.1605L18.1207 41.5743C18.5113 41.9648 19.1444 41.9648 19.535 41.5743L26.4027 34.7066C26.7932 34.316 27.4264 34.316 27.8169 34.7066L32.0592 38.9488C32.4497 39.3394 33.0829 39.3394 33.4734 38.9488L41.6239 30.7983C42.0144 30.4078 42.6476 30.4078 43.0381 30.7983L44.7526 32.5128C45.3449 33.1051 46.3594 32.7502 46.4534 31.9178L47.4321 23.2491C47.5042 22.6101 46.9632 22.0701 46.3243 22.1435L37.671 23.1377C36.8397 23.2332 36.4864 24.2466 37.0781 24.8383Z" fill="#222222"/>
</svg>
