<svg width="32" height="32" viewBox="0 0 32 32" fill="none" xmlns="http://www.w3.org/2000/svg">
<g clip-path="url(#clip0_71_492)">
<path d="M16.0001 29.334C14.1556 29.334 12.4223 28.9838 10.8001 28.2833C9.17786 27.5829 7.76675 26.6331 6.56675 25.434C5.36675 24.2349 4.41697 22.8238 3.71742 21.2007C3.01786 19.5775 2.66764 17.8442 2.66675 16.0007C2.66586 14.1571 3.01608 12.4238 3.71742 10.8007C4.41875 9.17755 5.36853 7.76643 6.56675 6.56732C7.76497 5.36821 9.17608 4.41843 10.8001 3.71799C12.4241 3.01754 14.1574 2.66732 16.0001 2.66732C16.7334 2.66732 17.4556 2.72288 18.1667 2.83399C18.8779 2.9451 19.5667 3.11177 20.2334 3.33399C20.7445 3.51177 21.0667 3.7731 21.2001 4.11799C21.3334 4.46288 21.3445 4.80154 21.2334 5.13399C21.1223 5.46643 20.917 5.72777 20.6174 5.91799C20.3179 6.10821 19.9788 6.12466 19.6001 5.96732C19.0223 5.76732 18.4392 5.61177 17.8507 5.50066C17.2623 5.38954 16.6454 5.33399 16.0001 5.33399C13.0445 5.33399 10.5276 6.3731 8.44942 8.45132C6.37119 10.5295 5.33253 13.046 5.33342 16.0007C5.33431 18.9553 6.37342 21.4722 8.45075 23.5513C10.5281 25.6304 13.0445 26.6691 16.0001 26.6673C18.9556 26.6655 21.4725 25.6269 23.5508 23.5513C25.629 21.4758 26.6676 18.9589 26.6668 16.0007C26.6668 15.6007 26.6445 15.2007 26.6001 14.8007C26.5556 14.4007 26.489 14.0118 26.4001 13.634C26.289 13.2118 26.3445 12.8673 26.5667 12.6007C26.789 12.334 27.0667 12.1673 27.4001 12.1007C27.7334 12.034 28.0614 12.0842 28.3841 12.2513C28.7068 12.4184 28.9232 12.7349 29.0334 13.2007C29.1445 13.6451 29.2223 14.1007 29.2668 14.5673C29.3112 15.034 29.3334 15.5118 29.3334 16.0007C29.3334 17.8451 28.9836 19.5784 28.2841 21.2007C27.5845 22.8229 26.6343 24.234 25.4334 25.434C24.2325 26.634 22.8214 27.5842 21.2001 28.2847C19.5787 28.9851 17.8454 29.3349 16.0001 29.334ZM26.6668 6.66732H25.3334C24.9556 6.66732 24.6392 6.53932 24.3841 6.28332C24.129 6.02732 24.001 5.71088 24.0001 5.33399C23.9992 4.9571 24.1272 4.64066 24.3841 4.38466C24.641 4.12866 24.9574 4.00066 25.3334 4.00066H26.6668V2.66732C26.6668 2.28954 26.7948 1.9731 27.0508 1.71799C27.3068 1.46288 27.6232 1.33488 28.0001 1.33399C28.377 1.3331 28.6939 1.4611 28.9508 1.71799C29.2076 1.97488 29.3352 2.29132 29.3334 2.66732V4.00066H30.6668C31.0445 4.00066 31.3614 4.12866 31.6174 4.38466C31.8734 4.64066 32.001 4.9571 32.0001 5.33399C31.9992 5.71088 31.8712 6.02777 31.6161 6.28466C31.361 6.54154 31.0445 6.6691 30.6668 6.66732H29.3334V8.00066C29.3334 8.37843 29.2054 8.69532 28.9494 8.95132C28.6934 9.20732 28.377 9.33488 28.0001 9.33399C27.6232 9.3331 27.3068 9.2051 27.0508 8.94999C26.7948 8.69488 26.6668 8.37843 26.6668 8.00066V6.66732ZM20.6667 14.6673C21.2223 14.6673 21.6947 14.4731 22.0841 14.0847C22.4734 13.6962 22.6676 13.2238 22.6667 12.6673C22.6659 12.1109 22.4716 11.6389 22.0841 11.2513C21.6965 10.8638 21.2241 10.6691 20.6667 10.6673C20.1094 10.6655 19.6374 10.8602 19.2507 11.2513C18.8641 11.6424 18.6694 12.1144 18.6667 12.6673C18.6641 13.2202 18.8587 13.6927 19.2507 14.0847C19.6427 14.4767 20.1147 14.6709 20.6667 14.6673ZM11.3334 14.6673C11.889 14.6673 12.3614 14.4731 12.7507 14.0847C13.1401 13.6962 13.3343 13.2238 13.3334 12.6673C13.3325 12.1109 13.1383 11.6389 12.7507 11.2513C12.3632 10.8638 11.8907 10.6691 11.3334 10.6673C10.7761 10.6655 10.3041 10.8602 9.91742 11.2513C9.53075 11.6424 9.33608 12.1144 9.33342 12.6673C9.33075 13.2202 9.52542 13.6927 9.91742 14.0847C10.3094 14.4767 10.7814 14.6709 11.3334 14.6673ZM16.0001 23.334C17.289 23.334 18.4779 23.0229 19.5667 22.4007C20.6556 21.7784 21.5334 20.934 22.2001 19.8673C22.3334 19.6007 22.3223 19.334 22.1667 19.0673C22.0112 18.8007 21.7779 18.6673 21.4668 18.6673H10.5334C10.2223 18.6673 9.98897 18.8007 9.83342 19.0673C9.67786 19.334 9.66675 19.6007 9.80008 19.8673C10.4668 20.934 11.3503 21.7784 12.4508 22.4007C13.5512 23.0229 14.7343 23.334 16.0001 23.334Z" fill="black"/>
</g>
<defs>
<clipPath id="clip0_71_492">
<rect width="32" height="32" fill="white"/>
</clipPath>
</defs>
</svg>
