<svg width="33" height="32" viewBox="0 0 33 32" fill="none" xmlns="http://www.w3.org/2000/svg">
<path d="M11.1667 15.666V9.99935C11.1667 9.4438 11.3613 8.9718 11.7507 8.58335C12.14 8.19491 12.612 8.00024 13.1667 7.99935C13.7213 7.99846 14.1938 8.19313 14.584 8.58335C14.9742 8.97357 15.1684 9.44557 15.1667 9.99935V15.666C15.1667 16.2216 14.9724 16.694 14.584 17.0834C14.1956 17.4727 13.7231 17.6669 13.1667 17.666C12.6102 17.6651 12.1382 17.4709 11.7507 17.0834C11.3631 16.6958 11.1684 16.2234 11.1667 15.666ZM17.8333 15.366V4.66602C17.8333 4.11046 18.028 3.63846 18.4173 3.25002C18.8067 2.86157 19.2787 2.66691 19.8333 2.66602C20.388 2.66513 20.8604 2.8598 21.2507 3.25002C21.6409 3.64024 21.8351 4.11224 21.8333 4.66602V15.366C21.8333 16.0327 21.628 16.5327 21.2173 16.866C20.8067 17.1994 20.3453 17.366 19.8333 17.366C19.3213 17.366 18.8604 17.1994 18.4507 16.866C18.0409 16.5327 17.8351 16.0327 17.8333 15.366ZM4.5 19.966V15.3327C4.5 14.7771 4.69467 14.3051 5.084 13.9167C5.47333 13.5282 5.94533 13.3336 6.5 13.3327C7.05467 13.3318 7.52711 13.5265 7.91733 13.9167C8.30756 14.3069 8.50178 14.7789 8.5 15.3327V19.966C8.5 20.6327 8.29467 21.1327 7.884 21.466C7.47333 21.7994 7.012 21.966 6.5 21.966C5.988 21.966 5.52711 21.7994 5.11733 21.466C4.70756 21.1327 4.50178 20.6327 4.5 19.966ZM7.7 28.066C7.12222 28.066 6.71644 27.794 6.48267 27.25C6.24889 26.706 6.34356 26.2225 6.76667 25.7994L12.2333 20.3327C12.4778 20.0882 12.7724 19.9549 13.1173 19.9327C13.4622 19.9105 13.7676 20.0216 14.0333 20.266L17.8333 23.5327L25.3 16.066H24.5C24.1222 16.066 23.8058 15.938 23.5507 15.682C23.2956 15.426 23.1676 15.1096 23.1667 14.7327C23.1658 14.3558 23.2938 14.0394 23.5507 13.7834C23.8076 13.5274 24.124 13.3994 24.5 13.3994H28.5C28.8778 13.3994 29.1947 13.5274 29.4507 13.7834C29.7067 14.0394 29.8342 14.3558 29.8333 14.7327V18.7327C29.8333 19.1105 29.7053 19.4274 29.4493 19.6834C29.1933 19.9394 28.8769 20.0669 28.5 20.066C28.1231 20.0651 27.8067 19.9371 27.5507 19.682C27.2947 19.4269 27.1667 19.1105 27.1667 18.7327V17.9327L18.8333 26.266C18.5889 26.5105 18.2942 26.6438 17.9493 26.666C17.6044 26.6882 17.2991 26.5771 17.0333 26.3327L13.2333 23.066L8.63333 27.666C8.52222 27.7771 8.38356 27.8718 8.21733 27.95C8.05111 28.0282 7.87867 28.0669 7.7 28.066Z" fill="black"/>
</svg>
