<svg width="116" height="30" viewBox="0 0 116 30" fill="none" xmlns="http://www.w3.org/2000/svg">
<path d="M0.2 29V0.999998H4.2V25.52H19.36V29H0.2ZM36.0822 29.32C33.9489 29.32 31.9622 28.96 30.1222 28.24C28.3089 27.52 26.7355 26.52 25.4022 25.24C24.0689 23.9333 23.0289 22.4133 22.2822 20.68C21.5355 18.9467 21.1622 17.0533 21.1622 15C21.1622 12.9467 21.5355 11.0533 22.2822 9.32C23.0289 7.58667 24.0689 6.08 25.4022 4.8C26.7355 3.49333 28.3089 2.48 30.1222 1.76C31.9355 1.04 33.9222 0.68 36.0822 0.68C38.2155 0.68 40.1755 1.04 41.9622 1.76C43.7755 2.45333 45.3489 3.45333 46.6822 4.76C48.0422 6.04 49.0822 7.54667 49.8022 9.28C50.5489 11.0133 50.9222 12.92 50.9222 15C50.9222 17.08 50.5489 18.9867 49.8022 20.72C49.0822 22.4533 48.0422 23.9733 46.6822 25.28C45.3489 26.56 43.7755 27.56 41.9622 28.28C40.1755 28.9733 38.2155 29.32 36.0822 29.32ZM36.0822 25.76C37.6289 25.76 39.0555 25.4933 40.3622 24.96C41.6955 24.4267 42.8422 23.68 43.8022 22.72C44.7889 21.7333 45.5489 20.5867 46.0822 19.28C46.6422 17.9733 46.9222 16.5467 46.9222 15C46.9222 13.4533 46.6422 12.0267 46.0822 10.72C45.5489 9.41333 44.7889 8.28 43.8022 7.32C42.8422 6.33333 41.6955 5.57333 40.3622 5.04C39.0555 4.50667 37.6289 4.24 36.0822 4.24C34.5089 4.24 33.0555 4.50667 31.7222 5.04C30.4155 5.57333 29.2689 6.33333 28.2822 7.32C27.2955 8.28 26.5222 9.41333 25.9622 10.72C25.4289 12.0267 25.1622 13.4533 25.1622 15C25.1622 16.5467 25.4289 17.9733 25.9622 19.28C26.5222 20.5867 27.2955 21.7333 28.2822 22.72C29.2689 23.68 30.4155 24.4267 31.7222 24.96C33.0555 25.4933 34.5089 25.76 36.0822 25.76ZM69.6759 29.32C67.5159 29.32 65.5293 28.9733 63.7159 28.28C61.9026 27.56 60.3293 26.56 58.9959 25.28C57.6626 23.9733 56.6226 22.4533 55.8759 20.72C55.1293 18.9867 54.7559 17.08 54.7559 15C54.7559 12.92 55.1293 11.0133 55.8759 9.28C56.6226 7.54667 57.6626 6.04 58.9959 4.76C60.3559 3.45333 61.9426 2.45333 63.7559 1.76C65.5693 1.04 67.5693 0.68 69.7559 0.68C71.9693 0.68 73.9959 1.04 75.8359 1.76C77.6759 2.48 79.2359 3.56 80.5159 5L78.0359 7.48C76.8893 6.36 75.6359 5.54667 74.2759 5.04C72.9426 4.50667 71.4893 4.24 69.9159 4.24C68.3159 4.24 66.8226 4.50667 65.4359 5.04C64.0759 5.57333 62.8893 6.32 61.8759 7.28C60.8893 8.24 60.1159 9.38667 59.5559 10.72C59.0226 12.0267 58.7559 13.4533 58.7559 15C58.7559 16.52 59.0226 17.9467 59.5559 19.28C60.1159 20.5867 60.8893 21.7333 61.8759 22.72C62.8893 23.68 64.0759 24.4267 65.4359 24.96C66.7959 25.4933 68.2759 25.76 69.8759 25.76C71.3693 25.76 72.7959 25.5333 74.1559 25.08C75.5426 24.6 76.8226 23.8133 77.9959 22.72L80.2759 25.76C78.8893 26.9333 77.2626 27.8267 75.3959 28.44C73.5559 29.0267 71.6493 29.32 69.6759 29.32ZM76.4359 25.24V14.84H80.2759V25.76L76.4359 25.24ZM100.574 29.32C98.441 29.32 96.4544 28.96 94.6144 28.24C92.801 27.52 91.2277 26.52 89.8944 25.24C88.561 23.9333 87.521 22.4133 86.7744 20.68C86.0277 18.9467 85.6544 17.0533 85.6544 15C85.6544 12.9467 86.0277 11.0533 86.7744 9.32C87.521 7.58667 88.561 6.08 89.8944 4.8C91.2277 3.49333 92.801 2.48 94.6144 1.76C96.4277 1.04 98.4144 0.68 100.574 0.68C102.708 0.68 104.668 1.04 106.454 1.76C108.268 2.45333 109.841 3.45333 111.174 4.76C112.534 6.04 113.574 7.54667 114.294 9.28C115.041 11.0133 115.414 12.92 115.414 15C115.414 17.08 115.041 18.9867 114.294 20.72C113.574 22.4533 112.534 23.9733 111.174 25.28C109.841 26.56 108.268 27.56 106.454 28.28C104.668 28.9733 102.708 29.32 100.574 29.32ZM100.574 25.76C102.121 25.76 103.548 25.4933 104.854 24.96C106.188 24.4267 107.334 23.68 108.294 22.72C109.281 21.7333 110.041 20.5867 110.574 19.28C111.134 17.9733 111.414 16.5467 111.414 15C111.414 13.4533 111.134 12.0267 110.574 10.72C110.041 9.41333 109.281 8.28 108.294 7.32C107.334 6.33333 106.188 5.57333 104.854 5.04C103.548 4.50667 102.121 4.24 100.574 4.24C99.001 4.24 97.5477 4.50667 96.2144 5.04C94.9077 5.57333 93.761 6.33333 92.7744 7.32C91.7877 8.28 91.0144 9.41333 90.4544 10.72C89.921 12.0267 89.6544 13.4533 89.6544 15C89.6544 16.5467 89.921 17.9733 90.4544 19.28C91.0144 20.5867 91.7877 21.7333 92.7744 22.72C93.761 23.68 94.9077 24.4267 96.2144 24.96C97.5477 25.4933 99.001 25.76 100.574 25.76Z" fill="#EB4247"/>
</svg>
