<svg width="32" height="32" viewBox="0 0 32 32" fill="none" xmlns="http://www.w3.org/2000/svg">
<path fill-rule="evenodd" clip-rule="evenodd" d="M31.2068 22.4865C30.4814 21.0258 29.5256 19.6914 28.3762 18.5345C27.9911 18.1005 27.5886 17.6824 27.1695 17.2812L27.1188 17.2318C26.9631 17.0809 26.8093 16.928 26.6575 16.7732C28.2292 14.5876 29.5739 12.2475 30.6708 9.78916L30.7148 9.69049L30.7455 9.58649C30.8908 9.10249 31.0562 8.18249 30.4695 7.35049C29.8615 6.49182 28.8895 6.33716 28.2375 6.33716H25.2415C24.6141 6.30816 23.9936 6.47857 23.4691 6.82398C22.9445 7.16938 22.5428 7.67202 22.3215 8.25982C21.6768 9.79537 20.8695 11.2575 19.9135 12.6212V9.11049C19.9135 8.65716 19.8708 7.89716 19.3842 7.25716C18.8028 6.48916 17.9615 6.33716 17.3775 6.33716H12.6228C12.0024 6.32288 11.4002 6.54777 10.9411 6.96526C10.4819 7.38274 10.2008 7.96084 10.1562 8.57982L10.1522 8.63982V8.69982C10.1522 9.34649 10.4082 9.82382 10.6135 10.1238C10.7055 10.2585 10.8028 10.3812 10.8655 10.4585L10.8788 10.4758C10.9455 10.5585 10.9895 10.6132 11.0335 10.6745C11.1508 10.8318 11.3175 11.0772 11.3655 11.7092V13.6732C10.4112 12.0748 9.62862 10.3801 9.03083 8.61716L9.02016 8.58782L9.0095 8.55982C8.84683 8.13449 8.58683 7.51582 8.0655 7.04382C7.4575 6.49049 6.7375 6.33716 6.08283 6.33716H3.04283C2.38016 6.33716 1.5815 6.49182 0.985496 7.11982C0.400163 7.73849 0.333496 8.47982 0.333496 8.87182V9.05049L0.370829 9.22382C1.21118 13.132 2.9459 16.7922 5.43883 19.9172C6.57792 21.7136 8.12444 23.2163 9.95294 24.3033C11.7814 25.3902 13.8404 26.0308 15.9628 26.1732L16.0175 26.1772H16.0735C17.0415 26.1772 18.0508 26.0932 18.8095 25.5878C19.8322 24.9052 19.9135 23.8585 19.9135 23.3358V21.8185C20.1762 22.0318 20.5015 22.3172 20.9002 22.7012C21.3828 23.1838 21.7668 23.6025 22.0962 23.9678L22.2722 24.1625C22.5282 24.4478 22.7802 24.7292 23.0095 24.9598C23.2975 25.2492 23.6535 25.5678 24.0988 25.8038C24.5828 26.0585 25.0908 26.1745 25.6295 26.1745H28.6708C29.3122 26.1745 30.2308 26.0225 30.8775 25.2732C31.5815 24.4572 31.5282 23.4558 31.3068 22.7372L31.2668 22.6078L31.2068 22.4865ZM23.5802 22.6278C23.167 22.1658 22.7415 21.715 22.3042 21.2758L22.3002 21.2718C20.4908 19.5278 19.6468 19.2252 19.0495 19.2252C18.7308 19.2252 18.3802 19.2598 18.1522 19.5452C18.0507 19.682 17.9835 19.8411 17.9562 20.0092C17.9244 20.2048 17.9101 20.4029 17.9135 20.6012V23.3358C17.9135 23.6758 17.8575 23.8185 17.7002 23.9225C17.4908 24.0625 17.0442 24.1758 16.0855 24.1758C14.2644 24.0519 12.4988 23.4976 10.9337 22.5583C9.36866 21.6191 8.04886 20.3218 7.08283 18.7732L7.07216 18.7558L7.05883 18.7398C4.7364 15.8515 3.11856 12.462 2.3335 8.83982C2.33883 8.66649 2.37616 8.56116 2.4375 8.49716C2.50016 8.43049 2.6535 8.33716 3.04283 8.33716H6.08283C6.42016 8.33716 6.59616 8.41182 6.72283 8.52516C6.86416 8.65582 6.9895 8.87582 7.13883 9.26782C7.8855 11.4625 8.8935 13.5158 9.8495 15.0252C10.3268 15.7785 10.7962 16.4065 11.2202 16.8505C11.4322 17.0718 11.6388 17.2558 11.8375 17.3865C12.0282 17.5118 12.2455 17.6118 12.4695 17.6118C12.5868 17.6118 12.7242 17.5985 12.8562 17.5412C12.9989 17.4785 13.1163 17.3695 13.1895 17.2318C13.3268 16.9812 13.3655 16.6118 13.3655 16.1278V11.6305C13.2948 10.5398 12.9655 9.92516 12.6455 9.48916C12.5806 9.40203 12.5139 9.31623 12.4455 9.23182L12.4282 9.21049C12.3716 9.14122 12.3173 9.07007 12.2655 8.99716C12.2006 8.91521 12.1612 8.81599 12.1522 8.71182C12.1626 8.60587 12.2132 8.50792 12.2935 8.43803C12.3738 8.36813 12.4778 8.33157 12.5842 8.33582H17.3775C17.6522 8.33582 17.7442 8.40249 17.7908 8.46516C17.8575 8.55182 17.9135 8.73182 17.9135 9.11049V15.1478C17.9135 15.8652 18.2442 16.3505 18.7242 16.3505C19.2762 16.3505 19.6748 16.0158 20.3708 15.3198L20.3828 15.3065L20.3935 15.2945C21.9549 13.391 23.2306 11.27 24.1802 8.99849L24.1855 8.98249C24.2565 8.78155 24.3915 8.60946 24.5697 8.49265C24.7479 8.37583 24.9596 8.32073 25.1722 8.33582H28.2388C28.6548 8.33582 28.7908 8.44249 28.8362 8.50516C28.8828 8.57182 28.9162 8.71449 28.8362 8.99449C27.7411 11.443 26.3872 13.7674 24.7975 15.9278L24.7868 15.9438C24.6335 16.1798 24.4642 16.4412 24.4402 16.7398C24.4135 17.0625 24.5522 17.3545 24.7962 17.6692C24.9735 17.9305 25.3402 18.2892 25.7122 18.6532L25.7468 18.6878C26.1362 19.0692 26.5588 19.4825 26.8975 19.8825L26.9068 19.8918L26.9162 19.9025C27.9259 20.9099 28.7657 22.0744 29.4028 23.3505C29.5042 23.6972 29.4428 23.8758 29.3628 23.9678C29.2708 24.0745 29.0642 24.1745 28.6722 24.1745H25.6295C25.4221 24.1801 25.2167 24.1319 25.0335 24.0345C24.8091 23.9031 24.6052 23.7396 24.4282 23.5492C24.2375 23.3585 24.0308 23.1278 23.7775 22.8465L23.5802 22.6278Z" fill="#262626"/>
</svg>
