<svg width="64" height="64" viewBox="0 0 64 64" fill="none" xmlns="http://www.w3.org/2000/svg">
<path d="M16.6667 5.33301C15.0754 5.33301 13.5493 5.96515 12.4241 7.09037C11.2989 8.21558 10.6667 9.74171 10.6667 11.333V52.6663C10.6667 54.2576 11.2989 55.7838 12.4241 56.909C13.5493 58.0342 15.0754 58.6663 16.6667 58.6663H36.6667C38.2484 58.6664 39.7661 58.042 40.8897 56.9288C42.0133 55.8157 42.652 54.3039 42.6667 52.7223V48.669C42.6667 48.1386 42.456 47.6299 42.081 47.2548C41.7059 46.8797 41.1972 46.669 40.6667 46.669C39.4587 46.669 38.6961 46.341 38.1707 45.917C37.6161 45.4717 37.1574 44.7837 36.8081 43.813C36.0801 41.7997 36.0028 39.1463 36.0028 36.6663C36.0027 36.1594 35.8102 35.6714 35.4641 35.301L35.0241 34.829C34.8793 34.6692 34.728 34.5153 34.5707 34.3677C34.3734 34.181 33.7708 33.6077 31.4161 31.253C30.1654 30.0023 29.4748 28.9463 29.2481 28.1383C29.1543 27.8589 29.1395 27.559 29.2054 27.2717C29.3041 26.9394 29.4934 26.6411 29.7521 26.4103C29.9825 26.1531 30.2797 25.9648 30.6107 25.8663C30.8972 25.801 31.1961 25.8157 31.4748 25.909C32.2801 26.1357 33.3361 26.8317 34.5868 28.0823C36.0267 29.5223 37.3948 30.8743 38.6187 32.0823C40.6454 34.0877 42.2801 35.709 43.2054 36.6957C43.568 37.0804 44.0681 37.3059 44.5964 37.323C45.1247 37.34 45.6383 37.1472 46.0249 36.7867C46.4115 36.4262 46.6397 35.9273 46.6595 35.399C46.6793 34.8708 46.4892 34.3562 46.1307 33.9677C44.9958 32.7804 43.841 31.6122 42.6667 30.4637V21.493L50.2454 29.0717C51.3681 30.197 52.0027 31.7223 52.0027 33.3117V56.6663C52.0027 57.1968 52.2135 57.7055 52.5885 58.0806C52.9636 58.4556 53.4723 58.6663 54.0027 58.6663C54.5332 58.6663 55.0419 58.4556 55.417 58.0806C55.792 57.7055 56.0027 57.1968 56.0027 56.6663V33.3143C56.0026 32.0008 55.7438 30.7002 55.2409 29.4868C54.7381 28.2734 54.0011 27.1709 53.0721 26.2423L42.6667 15.837V11.3303C42.666 9.7395 42.0336 8.21407 40.9084 7.08942C39.7833 5.96478 38.2576 5.33301 36.6667 5.33301H16.6667ZM33.0454 45.173C33.3041 45.8877 33.6374 46.597 34.0694 47.2583C33.0504 47.7477 32.1904 48.5149 31.5883 49.4717C30.9863 50.4285 30.6669 51.5359 30.6667 52.6663V54.6663H22.6667V52.6663C22.6667 51.075 22.0346 49.5489 20.9094 48.4237C19.7842 47.2985 18.258 46.6663 16.6667 46.6663H14.6667V17.333H16.6667C18.258 17.333 19.7842 16.7009 20.9094 15.5756C22.0346 14.4504 22.6667 12.9243 22.6667 11.333V9.33301H30.6667V11.333C30.6667 12.9243 31.2989 14.4504 32.4241 15.5756C33.5493 16.7009 35.0754 17.333 36.6667 17.333H38.6667V26.501L37.4161 25.253C36.0001 23.837 34.3547 22.565 32.5601 22.0583C31.6023 21.7739 30.5858 21.7509 29.6161 21.9917C29.0143 22.145 28.444 22.4022 27.9307 22.7517C26.4231 22.546 24.888 22.7121 23.4592 23.2355C22.0304 23.7588 20.7512 24.6236 19.7331 25.7544C18.715 26.8853 17.9888 28.2479 17.6177 29.7236C17.2467 31.1993 17.2421 32.7433 17.6043 34.2212C17.9666 35.6991 18.6846 37.066 19.696 38.2029C20.7074 39.3398 21.9814 40.2121 23.407 40.744C24.8327 41.2759 26.3667 41.4511 27.8756 41.2544C29.3845 41.0578 30.8224 40.4952 32.0641 39.6157C32.1627 41.4397 32.4107 43.421 33.0454 45.173ZM21.3334 31.9997C21.3332 30.8379 21.7123 29.7079 22.4131 28.7813C23.1139 27.8547 24.0981 27.1823 25.2161 26.8663C25.1163 27.6554 25.178 28.4565 25.3974 29.221C25.9014 31.0157 27.1707 32.6637 28.5894 34.0823L30.3627 35.8477C29.6086 36.5726 28.6578 37.0598 27.6289 37.2485C26.5999 37.4372 25.5382 37.3192 24.5758 36.909C23.6134 36.4989 22.7929 35.8148 22.2164 34.9419C21.6399 34.069 21.3328 33.0458 21.3334 31.9997ZM14.6667 11.333C14.6667 10.8026 14.8775 10.2939 15.2525 9.91879C15.6276 9.54372 16.1363 9.33301 16.6667 9.33301H18.6667V11.333C18.6667 11.8634 18.456 12.3721 18.081 12.7472C17.7059 13.1223 17.1972 13.333 16.6667 13.333H14.6667V11.333ZM34.6667 9.33301H36.6667C37.1972 9.33301 37.7059 9.54372 38.081 9.91879C38.456 10.2939 38.6667 10.8026 38.6667 11.333V13.333H36.6667C36.1363 13.333 35.6276 13.1223 35.2525 12.7472C34.8775 12.3721 34.6667 11.8634 34.6667 11.333V9.33301ZM38.6667 50.6663V52.6663C38.6667 53.1968 38.456 53.7055 38.081 54.0806C37.7059 54.4556 37.1972 54.6663 36.6667 54.6663H34.6667V52.6663C34.6667 52.1359 34.8775 51.6272 35.2525 51.2521C35.6276 50.8771 36.1363 50.6663 36.6667 50.6663H38.6667ZM18.6667 54.6663H16.6667C16.1363 54.6663 15.6276 54.4556 15.2525 54.0806C14.8775 53.7055 14.6667 53.1968 14.6667 52.6663V50.6663H16.6667C17.1972 50.6663 17.7059 50.8771 18.081 51.2521C18.456 51.6272 18.6667 52.1359 18.6667 52.6663V54.6663Z" fill="#262626"/>
</svg>
