<svg width="32" height="32" viewBox="0 0 32 32" fill="none" xmlns="http://www.w3.org/2000/svg">
<path d="M9.33333 28H6.66667C5.93333 28 5.30578 27.7391 4.784 27.2173C4.26222 26.6956 4.00089 26.0676 4 25.3333V22.6667C4 22.2889 4.128 21.9724 4.384 21.7173C4.64 21.4622 4.95644 21.3342 5.33333 21.3333C5.71022 21.3324 6.02711 21.4604 6.284 21.7173C6.54089 21.9742 6.66844 22.2907 6.66667 22.6667V25.3333H9.33333C9.71111 25.3333 10.028 25.4613 10.284 25.7173C10.54 25.9733 10.6676 26.2898 10.6667 26.6667C10.6658 27.0436 10.5378 27.3604 10.2827 27.6173C10.0276 27.8742 9.71111 28.0018 9.33333 28ZM25.3333 28H22.6667C22.2889 28 21.9724 27.872 21.7173 27.616C21.4622 27.36 21.3342 27.0436 21.3333 26.6667C21.3324 26.2898 21.4604 25.9733 21.7173 25.7173C21.9742 25.4613 22.2907 25.3333 22.6667 25.3333H25.3333V22.6667C25.3333 22.2889 25.4613 21.9724 25.7173 21.7173C25.9733 21.4622 26.2898 21.3342 26.6667 21.3333C27.0436 21.3324 27.3604 21.4604 27.6173 21.7173C27.8742 21.9742 28.0018 22.2907 28 22.6667V25.3333C28 26.0667 27.7391 26.6947 27.2173 27.2173C26.6956 27.74 26.0676 28.0009 25.3333 28ZM16 25.3333C13.4222 25.3333 11.2222 24.4222 9.4 22.6C7.57778 20.7778 6.66667 18.5778 6.66667 16C6.66667 13.4222 7.57778 11.2222 9.4 9.4C11.2222 7.57778 13.4222 6.66667 16 6.66667C18.5778 6.66667 20.7778 7.57778 22.6 9.4C24.4222 11.2222 25.3333 13.4222 25.3333 16C25.3333 18.5778 24.4222 20.7778 22.6 22.6C20.7778 24.4222 18.5778 25.3333 16 25.3333ZM16 22.6667C17.8444 22.6667 19.4169 22.0164 20.7173 20.716C22.0178 19.4156 22.6676 17.8436 22.6667 16C22.6658 14.1564 22.0156 12.5844 20.716 11.284C19.4164 9.98356 17.8444 9.33333 16 9.33333C14.1556 9.33333 12.5836 9.98356 11.284 11.284C9.98445 12.5844 9.33422 14.1564 9.33333 16C9.33244 17.8436 9.98267 19.416 11.284 20.7173C12.5853 22.0187 14.1573 22.6684 16 22.6667ZM4 6.66667C4 5.93333 4.26133 5.30578 4.784 4.784C5.30667 4.26222 5.93422 4.00089 6.66667 4H9.33333C9.71111 4 10.028 4.128 10.284 4.384C10.54 4.64 10.6676 4.95644 10.6667 5.33333C10.6658 5.71022 10.5378 6.02711 10.2827 6.284C10.0276 6.54089 9.71111 6.66844 9.33333 6.66667H6.66667V9.33333C6.66667 9.71111 6.53867 10.028 6.28267 10.284C6.02667 10.54 5.71022 10.6676 5.33333 10.6667C4.95644 10.6658 4.64 10.5378 4.384 10.2827C4.128 10.0276 4 9.71111 4 9.33333V6.66667ZM26.6667 10.6667C26.2889 10.6667 25.9724 10.5387 25.7173 10.2827C25.4622 10.0267 25.3342 9.71022 25.3333 9.33333V6.66667H22.6667C22.2889 6.66667 21.9724 6.53867 21.7173 6.28267C21.4622 6.02667 21.3342 5.71022 21.3333 5.33333C21.3324 4.95644 21.4604 4.64 21.7173 4.384C21.9742 4.128 22.2907 4 22.6667 4H25.3333C26.0667 4 26.6947 4.26133 27.2173 4.784C27.74 5.30667 28.0009 5.93422 28 6.66667V9.33333C28 9.71111 27.872 10.028 27.616 10.284C27.36 10.54 27.0436 10.6676 26.6667 10.6667Z" fill="black"/>
</svg>
