<svg width="653" height="239" viewBox="0 0 653 239" fill="none" xmlns="http://www.w3.org/2000/svg">
<g style="mix-blend-mode:difference">
<path d="M0 178.916V155.55L119.581 2.67038H155.656L37.0769 155.55L20.0416 150.209H206.762V178.916H0ZM129.936 236.33V178.916L130.938 150.209V99.4721H162.337V236.33H129.936Z" fill="#EB4247"/>
<path d="M322.317 239C304.057 239 287.689 234.327 273.215 224.98C258.963 215.634 247.606 202.06 239.144 184.257C230.905 166.454 226.785 144.869 226.785 119.5C226.785 94.1313 230.905 72.5456 239.144 54.743C247.606 36.9404 258.963 23.3659 273.215 14.0196C287.689 4.67318 304.057 0 322.317 0C340.354 0 356.61 4.67318 371.085 14.0196C385.559 23.3659 396.916 36.9404 405.155 54.743C413.395 72.5456 417.514 94.1313 417.514 119.5C417.514 144.869 413.395 166.454 405.155 184.257C396.916 202.06 385.559 215.634 371.085 224.98C356.61 234.327 340.354 239 322.317 239ZM322.317 209.292C334.564 209.292 345.253 205.954 354.383 199.278C363.736 192.602 370.973 182.588 376.095 169.236C381.439 155.884 384.112 139.305 384.112 119.5C384.112 99.6946 381.439 83.1159 376.095 69.764C370.973 56.412 363.736 46.398 354.383 39.7221C345.253 33.0461 334.564 29.7081 322.317 29.7081C310.069 29.7081 299.269 33.0461 289.916 39.7221C280.564 46.398 273.215 56.412 267.871 69.764C262.749 83.1159 260.188 99.6946 260.188 119.5C260.188 139.305 262.749 155.884 267.871 169.236C273.215 182.588 280.564 192.602 289.916 199.278C299.269 205.954 310.069 209.292 322.317 209.292Z" fill="#EB4247"/>
<path d="M446.238 178.916V155.55L565.819 2.67038H601.894L483.315 155.55L466.279 150.209H653V178.916H446.238ZM576.174 236.33V178.916L577.176 150.209V99.4721H608.575V236.33H576.174Z" fill="#EB4247"/>
</g>
</svg>
