<svg width="70" height="18" viewBox="0 0 70 18" fill="none" xmlns="http://www.w3.org/2000/svg">
<path d="M0.52 17V0.199999H2.92V14.912H12.016V17H0.52ZM22.0493 17.192C20.7693 17.192 19.5773 16.976 18.4733 16.544C17.3853 16.112 16.4413 15.512 15.6413 14.744C14.8413 13.96 14.2173 13.048 13.7693 12.008C13.3213 10.968 13.0973 9.832 13.0973 8.6C13.0973 7.368 13.3213 6.232 13.7693 5.192C14.2173 4.152 14.8413 3.248 15.6413 2.48C16.4413 1.696 17.3853 1.088 18.4733 0.655999C19.5613 0.224 20.7533 0.0079999 22.0493 0.0079999C23.3293 0.0079999 24.5053 0.224 25.5773 0.655999C26.6653 1.072 27.6093 1.672 28.4093 2.456C29.2253 3.224 29.8493 4.128 30.2813 5.168C30.7293 6.208 30.9533 7.352 30.9533 8.6C30.9533 9.848 30.7293 10.992 30.2813 12.032C29.8493 13.072 29.2253 13.984 28.4093 14.768C27.6093 15.536 26.6653 16.136 25.5773 16.568C24.5053 16.984 23.3293 17.192 22.0493 17.192ZM22.0493 15.056C22.9773 15.056 23.8333 14.896 24.6173 14.576C25.4173 14.256 26.1053 13.808 26.6813 13.232C27.2733 12.64 27.7293 11.952 28.0493 11.168C28.3853 10.384 28.5533 9.528 28.5533 8.6C28.5533 7.672 28.3853 6.816 28.0493 6.032C27.7293 5.248 27.2733 4.568 26.6813 3.992C26.1053 3.4 25.4173 2.944 24.6173 2.624C23.8333 2.304 22.9773 2.144 22.0493 2.144C21.1053 2.144 20.2333 2.304 19.4333 2.624C18.6493 2.944 17.9613 3.4 17.3693 3.992C16.7773 4.568 16.3133 5.248 15.9773 6.032C15.6573 6.816 15.4973 7.672 15.4973 8.6C15.4973 9.528 15.6573 10.384 15.9773 11.168C16.3133 11.952 16.7773 12.64 17.3693 13.232C17.9613 13.808 18.6493 14.256 19.4333 14.576C20.2333 14.896 21.1053 15.056 22.0493 15.056ZM42.2056 17.192C40.9096 17.192 39.7176 16.984 38.6296 16.568C37.5416 16.136 36.5976 15.536 35.7976 14.768C34.9976 13.984 34.3736 13.072 33.9256 12.032C33.4776 10.992 33.2536 9.848 33.2536 8.6C33.2536 7.352 33.4776 6.208 33.9256 5.168C34.3736 4.128 34.9976 3.224 35.7976 2.456C36.6136 1.672 37.5656 1.072 38.6536 0.655999C39.7416 0.224 40.9416 0.0079999 42.2536 0.0079999C43.5816 0.0079999 44.7976 0.224 45.9016 0.655999C47.0056 1.088 47.9416 1.736 48.7096 2.6L47.2216 4.088C46.5336 3.416 45.7816 2.928 44.9656 2.624C44.1656 2.304 43.2936 2.144 42.3496 2.144C41.3896 2.144 40.4936 2.304 39.6616 2.624C38.8456 2.944 38.1336 3.392 37.5256 3.968C36.9336 4.544 36.4696 5.232 36.1336 6.032C35.8136 6.816 35.6536 7.672 35.6536 8.6C35.6536 9.512 35.8136 10.368 36.1336 11.168C36.4696 11.952 36.9336 12.64 37.5256 13.232C38.1336 13.808 38.8456 14.256 39.6616 14.576C40.4776 14.896 41.3656 15.056 42.3256 15.056C43.2216 15.056 44.0776 14.92 44.8936 14.648C45.7256 14.36 46.4936 13.888 47.1976 13.232L48.5656 15.056C47.7336 15.76 46.7576 16.296 45.6376 16.664C44.5336 17.016 43.3896 17.192 42.2056 17.192ZM46.2616 14.744V8.504H48.5656V15.056L46.2616 14.744ZM60.7446 17.192C59.4646 17.192 58.2726 16.976 57.1686 16.544C56.0806 16.112 55.1366 15.512 54.3366 14.744C53.5366 13.96 52.9126 13.048 52.4646 12.008C52.0166 10.968 51.7926 9.832 51.7926 8.6C51.7926 7.368 52.0166 6.232 52.4646 5.192C52.9126 4.152 53.5366 3.248 54.3366 2.48C55.1366 1.696 56.0806 1.088 57.1686 0.655999C58.2566 0.224 59.4486 0.0079999 60.7446 0.0079999C62.0246 0.0079999 63.2006 0.224 64.2726 0.655999C65.3606 1.072 66.3046 1.672 67.1046 2.456C67.9206 3.224 68.5446 4.128 68.9766 5.168C69.4246 6.208 69.6486 7.352 69.6486 8.6C69.6486 9.848 69.4246 10.992 68.9766 12.032C68.5446 13.072 67.9206 13.984 67.1046 14.768C66.3046 15.536 65.3606 16.136 64.2726 16.568C63.2006 16.984 62.0246 17.192 60.7446 17.192ZM60.7446 15.056C61.6726 15.056 62.5286 14.896 63.3126 14.576C64.1126 14.256 64.8006 13.808 65.3766 13.232C65.9686 12.64 66.4246 11.952 66.7446 11.168C67.0806 10.384 67.2486 9.528 67.2486 8.6C67.2486 7.672 67.0806 6.816 66.7446 6.032C66.4246 5.248 65.9686 4.568 65.3766 3.992C64.8006 3.4 64.1126 2.944 63.3126 2.624C62.5286 2.304 61.6726 2.144 60.7446 2.144C59.8006 2.144 58.9286 2.304 58.1286 2.624C57.3446 2.944 56.6566 3.4 56.0646 3.992C55.4726 4.568 55.0086 5.248 54.6726 6.032C54.3526 6.816 54.1926 7.672 54.1926 8.6C54.1926 9.528 54.3526 10.384 54.6726 11.168C55.0086 11.952 55.4726 12.64 56.0646 13.232C56.6566 13.808 57.3446 14.256 58.1286 14.576C58.9286 14.896 59.8006 15.056 60.7446 15.056Z" fill="#262626"/>
</svg>
