<svg width="33" height="33" viewBox="0 0 33 33" fill="none" xmlns="http://www.w3.org/2000/svg">
<path d="M14.6333 18.1673L11.7667 15.3007C11.5222 15.0562 11.2111 14.934 10.8333 14.934C10.4556 14.934 10.1444 15.0562 9.9 15.3007C9.65556 15.5451 9.53333 15.8562 9.53333 16.234C9.53333 16.6118 9.65556 16.9229 9.9 17.1673L13.7 20.9673C13.9667 21.234 14.2778 21.3673 14.6333 21.3673C14.9889 21.3673 15.3 21.234 15.5667 20.9673L23.1 13.434C23.3444 13.1895 23.4667 12.8784 23.4667 12.5007C23.4667 12.1229 23.3444 11.8118 23.1 11.5673C22.8556 11.3229 22.5444 11.2007 22.1667 11.2007C21.7889 11.2007 21.4778 11.3229 21.2333 11.5673L14.6333 18.1673ZM7.16667 28.5007C6.43333 28.5007 5.80578 28.2398 5.284 27.718C4.76222 27.1962 4.50089 26.5682 4.5 25.834V7.16732C4.5 6.43398 4.76133 5.80643 5.284 5.28465C5.80667 4.76287 6.43422 4.50154 7.16667 4.50065H12.7667C13.0556 3.70065 13.5391 3.05621 14.2173 2.56732C14.8956 2.07843 15.6564 1.83398 16.5 1.83398C17.3436 1.83398 18.1049 2.07843 18.784 2.56732C19.4631 3.05621 19.9462 3.70065 20.2333 4.50065H25.8333C26.5667 4.50065 27.1947 4.76198 27.7173 5.28465C28.24 5.80732 28.5009 6.43487 28.5 7.16732V25.834C28.5 26.5673 28.2391 27.1953 27.7173 27.718C27.1956 28.2407 26.5676 28.5015 25.8333 28.5007H7.16667ZM7.16667 25.834H25.8333V7.16732H7.16667V25.834ZM16.5 6.16732C16.7889 6.16732 17.028 6.07265 17.2173 5.88332C17.4067 5.69398 17.5009 5.45532 17.5 5.16732C17.4991 4.87932 17.4044 4.64065 17.216 4.45132C17.0276 4.26198 16.7889 4.16732 16.5 4.16732C16.2111 4.16732 15.9724 4.26198 15.784 4.45132C15.5956 4.64065 15.5009 4.87932 15.5 5.16732C15.4991 5.45532 15.5938 5.69443 15.784 5.88465C15.9742 6.07487 16.2129 6.1691 16.5 6.16732Z" fill="black"/>
</svg>
