<svg width="33" height="32" viewBox="0 0 33 32" fill="none" xmlns="http://www.w3.org/2000/svg">
<path d="M24.7668 17.334H17.7667C17.5223 19.3784 16.8223 21.2287 15.6667 22.8847C14.5112 24.5407 13.0112 25.8238 11.1667 26.734C11.1223 27.8451 10.7223 28.7784 9.96675 29.534C9.21119 30.2895 8.27786 30.6673 7.16675 30.6673C6.05564 30.6673 5.11119 30.2784 4.33341 29.5007C3.55564 28.7229 3.16675 27.7784 3.16675 26.6673C3.16675 25.5562 3.55564 24.6118 4.33341 23.834C5.11119 23.0562 6.05564 22.6673 7.16675 22.6673C7.76675 22.6673 8.34453 22.8064 8.90008 23.0847C9.45564 23.3629 9.9223 23.7349 10.3001 24.2007C11.6112 23.4895 12.6779 22.534 13.5001 21.334C14.3223 20.134 14.8334 18.8007 15.0334 17.334H10.9001C10.6334 18.134 10.1556 18.7784 9.46675 19.2673C8.77786 19.7562 8.01119 20.0007 7.16675 20.0007C6.05564 20.0007 5.11119 19.6118 4.33341 18.834C3.55564 18.0562 3.16675 17.1118 3.16675 16.0007C3.16675 14.8895 3.55564 13.9451 4.33341 13.1673C5.11119 12.3895 6.05564 12.0007 7.16675 12.0007C8.01119 12.0007 8.77786 12.2451 9.46675 12.734C10.1556 13.2229 10.6334 13.8673 10.9001 14.6673H15.0334C14.8334 13.2007 14.3223 11.8673 13.5001 10.6673C12.6779 9.46732 11.6112 8.51176 10.3001 7.80065C9.9223 8.26732 9.45564 8.63976 8.90008 8.91798C8.34453 9.19621 7.76675 9.33487 7.16675 9.33398C6.05564 9.33398 5.11119 8.9451 4.33341 8.16732C3.55564 7.38954 3.16675 6.4451 3.16675 5.33398C3.16675 4.22287 3.55564 3.27843 4.33341 2.50065C5.11119 1.72287 6.05564 1.33398 7.16675 1.33398C8.27786 1.33398 9.21119 1.71176 9.96675 2.46732C10.7223 3.22287 11.1223 4.15621 11.1667 5.26732C12.9667 6.20065 14.4556 7.48954 15.6334 9.13398C16.8112 10.7784 17.5223 12.6229 17.7667 14.6673H24.7668L23.5667 13.4673C23.3223 13.2229 23.2001 12.9118 23.2001 12.534C23.2001 12.1562 23.3223 11.8451 23.5667 11.6007C23.8112 11.3562 24.1223 11.234 24.5001 11.234C24.8779 11.234 25.189 11.3562 25.4334 11.6007L28.9001 15.0673C29.0334 15.2007 29.1281 15.3451 29.1841 15.5007C29.2401 15.6562 29.2676 15.8229 29.2668 16.0007C29.2659 16.1784 29.2383 16.3451 29.1841 16.5007C29.1299 16.6562 29.0352 16.8007 28.9001 16.934L25.4334 20.4007C25.189 20.6451 24.8779 20.7673 24.5001 20.7673C24.1223 20.7673 23.8112 20.6451 23.5667 20.4007C23.3223 20.1562 23.2001 19.8451 23.2001 19.4673C23.2001 19.0895 23.3223 18.7784 23.5667 18.534L24.7668 17.334Z" fill="black"/>
</svg>
