<svg width="32" height="32" viewBox="0 0 32 32" fill="none" xmlns="http://www.w3.org/2000/svg">
<path d="M7.40004 13.9993C7.13337 13.8882 6.88359 13.7718 6.6507 13.65C6.41781 13.5282 6.1787 13.378 5.93337 13.1993L4.9667 13.4993C4.67781 13.5882 4.39426 13.5771 4.11604 13.466C3.83781 13.3549 3.62137 13.1771 3.4667 12.9327L3.20004 12.466C3.04448 12.1993 2.98893 11.9105 3.03337 11.5993C3.07781 11.2882 3.22226 11.0327 3.4667 10.8327L4.20004 10.1993C4.15559 9.91046 4.13337 9.62157 4.13337 9.33268C4.13337 9.04379 4.15559 8.7549 4.20004 8.46602L3.4667 7.83268C3.22226 7.63268 3.07781 7.38291 3.03337 7.08335C2.98893 6.78379 3.04448 6.50024 3.20004 6.23268L3.50004 5.73268C3.65559 5.48824 3.8667 5.31046 4.13337 5.19935C4.40004 5.08824 4.67781 5.07713 4.9667 5.16602L5.93337 5.46602C6.17781 5.28824 6.41692 5.13846 6.6507 5.01668C6.88448 4.8949 7.13426 4.77802 7.40004 4.66602L7.60004 3.69935C7.6667 3.38824 7.81693 3.13846 8.0507 2.95002C8.28448 2.76157 8.55648 2.6669 8.8667 2.66602H9.40004C9.71115 2.66602 9.98359 2.76602 10.2174 2.96602C10.4511 3.16602 10.6009 3.42157 10.6667 3.73268L10.8667 4.66602C11.1334 4.77713 11.3836 4.89402 11.6174 5.01668C11.8511 5.13935 12.0898 5.28913 12.3334 5.46602L13.3 5.16602C13.5889 5.07713 13.8725 5.08824 14.1507 5.19935C14.4289 5.31046 14.6454 5.48824 14.8 5.73268L15.0667 6.19935C15.2223 6.46602 15.2778 6.7549 15.2334 7.06602C15.1889 7.37713 15.0445 7.63268 14.8 7.83268L14.0667 8.46602C14.1111 8.7549 14.1334 9.04379 14.1334 9.33268C14.1334 9.62157 14.1111 9.91046 14.0667 10.1993L14.8 10.8327C15.0445 11.0327 15.1889 11.2829 15.2334 11.5833C15.2778 11.8838 15.2223 12.1669 15.0667 12.4327L14.7667 12.9327C14.6111 13.1771 14.4 13.3549 14.1334 13.466C13.8667 13.5771 13.5889 13.5882 13.3 13.4993L12.3334 13.1993C12.0889 13.3771 11.8503 13.5273 11.6174 13.65C11.3845 13.7727 11.1343 13.8891 10.8667 13.9993L10.6667 14.966C10.6 15.2771 10.4503 15.5273 10.2174 15.7167C9.98448 15.906 9.71204 16.0002 9.40004 15.9993H8.8667C8.55559 15.9993 8.28359 15.8993 8.0507 15.6993C7.81781 15.4993 7.66759 15.2438 7.60004 14.9327L7.40004 13.9993ZM9.13337 11.9993C9.8667 11.9993 10.4947 11.7385 11.0174 11.2167C11.54 10.6949 11.8009 10.0669 11.8 9.33268C11.7991 8.59846 11.5383 7.9709 11.0174 7.45002C10.4965 6.92913 9.86848 6.66779 9.13337 6.66602C8.39826 6.66424 7.7707 6.92557 7.2507 7.45002C6.7307 7.97446 6.46937 8.60202 6.4667 9.33268C6.46404 10.0633 6.72537 10.6913 7.2507 11.2167C7.77604 11.742 8.40359 12.0029 9.13337 11.9993ZM19.1334 27.866C18.7556 27.7327 18.4058 27.5714 18.084 27.382C17.7623 27.1927 17.4454 26.9762 17.1334 26.7327L15.8667 27.1327C15.4667 27.266 15.0667 27.2607 14.6667 27.1167C14.2667 26.9727 13.9556 26.7113 13.7334 26.3327L13.3667 25.6993C13.1445 25.3216 13.0667 24.9158 13.1334 24.482C13.2 24.0482 13.4 23.6873 13.7334 23.3993L14.7334 22.5327C14.6889 22.1327 14.6667 21.7327 14.6667 21.3327C14.6667 20.9327 14.6889 20.5327 14.7334 20.1327L13.7334 19.2327C13.4 18.9438 13.2 18.5882 13.1334 18.166C13.0667 17.7438 13.1445 17.3438 13.3667 16.966L13.7334 16.3327C13.9556 15.9549 14.2667 15.6936 14.6667 15.5487C15.0667 15.4038 15.4667 15.3985 15.8667 15.5327L17.1334 15.9327C17.4445 15.6882 17.7614 15.4713 18.084 15.282C18.4067 15.0927 18.7565 14.9318 19.1334 14.7993L19.4334 13.4327C19.5223 13.0105 19.728 12.666 20.0507 12.3993C20.3734 12.1327 20.7565 11.9993 21.2 11.9993H22C22.4445 11.9993 22.828 12.1327 23.1507 12.3993C23.4734 12.666 23.6787 13.0105 23.7667 13.4327L24.0667 14.7993C24.4445 14.9327 24.7947 15.094 25.1174 15.2833C25.44 15.4727 25.7565 15.6891 26.0667 15.9327L27.3334 15.5327C27.7334 15.3993 28.1334 15.4051 28.5334 15.55C28.9334 15.6949 29.2445 15.9558 29.4667 16.3327L29.8334 16.966C30.0556 17.3438 30.1334 17.7496 30.0667 18.1833C30 18.6171 29.8 18.978 29.4667 19.266L28.4667 20.1327C28.5111 20.5327 28.5334 20.9327 28.5334 21.3327C28.5334 21.7327 28.5111 22.1327 28.4667 22.5327L29.4667 23.4327C29.8 23.7216 30 24.0771 30.0667 24.4993C30.1334 24.9216 30.0556 25.3216 29.8334 25.6993L29.4667 26.3327C29.2445 26.7105 28.9334 26.9718 28.5334 27.1167C28.1334 27.2616 27.7334 27.2669 27.3334 27.1327L26.0667 26.7327C25.7556 26.9771 25.4391 27.1936 25.1174 27.382C24.7956 27.5705 24.4454 27.7318 24.0667 27.866L23.7667 29.2327C23.6778 29.6549 23.4725 29.9994 23.1507 30.266C22.8289 30.5327 22.4454 30.666 22 30.666H21.2C20.7556 30.666 20.3725 30.5327 20.0507 30.266C19.7289 29.9994 19.5231 29.6549 19.4334 29.2327L19.1334 27.866ZM21.6 25.3327C22.7111 25.3327 23.6556 24.9438 24.4334 24.166C25.2111 23.3882 25.6 22.4438 25.6 21.3327C25.6 20.2216 25.2111 19.2771 24.4334 18.4993C23.6556 17.7216 22.7111 17.3327 21.6 17.3327C20.4889 17.3327 19.5445 17.7216 18.7667 18.4993C17.9889 19.2771 17.6 20.2216 17.6 21.3327C17.6 22.4438 17.9889 23.3882 18.7667 24.166C19.5445 24.9438 20.4889 25.3327 21.6 25.3327Z" fill="black"/>
</svg>
